<?xml version="1.0" encoding="utf-8"?>
<!-- Generator: Adobe Illustrator 25.0.0, SVG Export Plug-In . SVG Version: 6.00 Build 0)  -->
<svg version="1.1" id="Слой_1" xmlns="http://www.w3.org/2000/svg" xmlns:xlink="http://www.w3.org/1999/xlink" x="0px" y="0px"
	 viewBox="0 0 97.4 97.4" style="enable-background:new 0 0 97.4 97.4;" xml:space="preserve">
<path d="M15.1-1.3h72.4c6.9,0,12.5,5.1,12.5,12.5v72.4c0,7.4-5.6,12.5-12.5,12.5H15.1C8.2,96.1,2.6,91,2.6,83.6V11.2
	C2.6,3.8,8.2-1.3,15.1-1.3z M73.5,9.5c-2.4,0-4.4,2-4.4,4.4v10.5c0,2.4,2,4.4,4.4,4.4h11c2.4,0,4.4-2,4.4-4.4V13.9
	c0-2.4-2-4.4-4.4-4.4H73.5z M88.9,39.9h-8.6c0.8,2.7,1.3,5.5,1.2,8.4c0,16.2-13.6,29.3-30.3,29.3S21.1,64.5,21.1,48.3
	c0-2.9,0.4-5.7,1.2-8.3h-9V81c0,2.1,1.7,3.9,3.9,3.9h67.8c2.1,0,3.9-1.7,3.9-3.9L88.9,39.9L88.9,39.9z M51.3,28.3
	c-10.8,0-19.6,8.5-19.6,19c0,10.5,8.8,18.9,19.6,18.9s19.6-8.5,19.6-19C70.9,36.8,62.1,28.3,51.3,28.3z"/>
</svg>
